
<global>
ampeg_attack=0.002
ampeg_release=0.3
</global>

<group>
group_label=Group

<region>
hikey=B2
hivel=127
lokey=A#2
lovel=0
offset=2880
pitch_keycenter=A#2
sample=Lespaul_Rhythm_Scoop_MP_A#2.opus
volume=+0.10
</region>

<region>
hikey=B3
hivel=127
lokey=A#3
lovel=0
offset=1609
pitch_keycenter=A#3
sample=Lespaul_Rhythm_Scoop_MP_A#3.opus
volume=+5.29
</region>

<region>
hikey=B4
hivel=127
lokey=A#4
lovel=0
offset=1077
pitch_keycenter=A#4
sample=Lespaul_Rhythm_Scoop_MP_A#4.opus
volume=+5.14
</region>

<region>
end=147795
hikey=B5
hivel=127
lokey=A#5
lovel=0
offset=-480
pitch_keycenter=A#5
sample=Lespaul_Rhythm_Scoop_MP_A#5.opus
volume=+8.66
</region>

<region>
hikey=C#3
hivel=127
lokey=C3
lovel=0
offset=2368
pitch_keycenter=C3
sample=Lespaul_Rhythm_Scoop_MP_C3.opus
volume=-1.89
</region>

<region>
hikey=C#4
hivel=127
lokey=C4
lovel=0
offset=2789
sample=Lespaul_Rhythm_Scoop_MP_C4.opus
volume=-0.51
</region>

<region>
hikey=C#5
hivel=127
lokey=C5
lovel=0
offset=2532
pitch_keycenter=C5
sample=Lespaul_Rhythm_Scoop_MP_C5.opus
volume=+6.11
</region>

<region>
end=147798
hikey=C#6
hivel=127
lokey=C6
lovel=0
offset=1914
pitch_keycenter=C6
sample=Lespaul_Rhythm_Scoop_MP_C6.opus
volume=-3.05
</region>

<region>
hikey=D#2
hivel=127
lokey=C2
lovel=0
offset=2792
pitch_keycenter=D2
sample=Lespaul_Rhythm_Scoop_MP_D2.opus
volume=+2.27
</region>

<region>
hikey=D#3
hivel=127
lokey=D3
lovel=0
offset=1862
pitch_keycenter=D3
sample=Lespaul_Rhythm_Scoop_MP_D3.opus
volume=+4.55
</region>

<region>
hikey=D#4
hivel=127
lokey=D4
lovel=0
offset=-135
pitch_keycenter=D4
sample=Lespaul_Rhythm_Scoop_MP_D4.opus
volume=+2.32
</region>

<region>
end=141767
hikey=D#5
hivel=127
lokey=D5
lovel=0
offset=2518
pitch_keycenter=D5
sample=Lespaul_Rhythm_Scoop_MP_D5.opus
volume=-1.40
</region>

<region>
hikey=F2
hivel=127
lokey=E2
lovel=0
offset=4117
pitch_keycenter=E2
sample=Lespaul_Rhythm_Scoop_MP_E2.opus
volume=-0.16
</region>

<region>
hikey=F3
hivel=127
lokey=E3
lovel=0
offset=1474
pitch_keycenter=E3
sample=Lespaul_Rhythm_Scoop_MP_E3.opus
volume=-1.59
</region>

<region>
hikey=F4
hivel=127
lokey=E4
lovel=0
offset=381
pitch_keycenter=E4
sample=Lespaul_Rhythm_Scoop_MP_E4.opus
volume=+4.60
</region>

<region>
end=151084
hikey=F5
hivel=127
lokey=E5
lovel=0
offset=2056
pitch_keycenter=E5
sample=Lespaul_Rhythm_Scoop_MP_E5.opus
volume=+5.52
</region>

<region>
hikey=G2
hivel=127
lokey=F#2
lovel=0
offset=4130
pitch_keycenter=F#2
sample=Lespaul_Rhythm_Scoop_MP_F#2.opus
volume=-1.06
</region>

<region>
hikey=G3
hivel=127
lokey=F#3
lovel=0
offset=1605
pitch_keycenter=F#3
sample=Lespaul_Rhythm_Scoop_MP_F#3.opus
volume=+6.85
</region>

<region>
hikey=G4
hivel=127
lokey=F#4
lovel=0
offset=3893
pitch_keycenter=F#4
sample=Lespaul_Rhythm_Scoop_MP_F#4.opus
volume=+1.94
</region>

<region>
hikey=G5
hivel=127
lokey=F#5
lovel=0
offset=2663
pitch_keycenter=F#5
sample=Lespaul_Rhythm_Scoop_MP_F#5.opus
volume=-0.21
</region>

<region>
hikey=A2
hivel=127
lokey=G#2
lovel=0
offset=2220
pitch_keycenter=G#2
sample=Lespaul_Rhythm_Scoop_MP_G#2.opus
volume=-1.47
</region>

<region>
hikey=A3
hivel=127
lokey=G#3
lovel=0
offset=2319
pitch_keycenter=G#3
sample=Lespaul_Rhythm_Scoop_MP_G#3.opus
volume=+6.79
</region>

<region>
hikey=A4
hivel=127
lokey=G#4
lovel=0
offset=1787
pitch_keycenter=G#4
sample=Lespaul_Rhythm_Scoop_MP_G#4.opus
volume=-0.34
</region>

<region>
end=150956
hikey=A5
hivel=127
lokey=G#5
lovel=0
offset=2908
pitch_keycenter=G#5
sample=Lespaul_Rhythm_Scoop_MP_G#5.opus
volume=+3.41
</region>
</group>